# xmcd
#
# Track frame offsets:
#	150
#	18727
#	36267
#	57087
#	78982
#	98207
#	119379
#	138047
#	159280
#	177082
#	196425
#
# Disc length: 2885 seconds
#
# Revision: 12
# Processed by: cddbd v1.5.2PL0 Copyright (c) Steve Scherf et al.
# Submitted via: EasyCDDAExtractor 15.3.0.1
#
DISCID=870b430b
DTITLE=Fey - Tierna La Noche
DYEAR=1996
DGENRE=Latin
TTITLE0=Muevelo
TTITLE1=Te Pertenezco
TTITLE2=Bajo El Arcoiris
TTITLE3=Desmargaritando El Corazon
TTITLE4=Bailando Sola
TTITLE5=Azucar Amargo
TTITLE6=Popocatepetl
TTITLE7=Las Lagrimas De Mi Almohada
TTITLE8=Subidon
TTITLE9=Un Poco Loco
TTITLE10=Tierna La Noche
EXTD=
EXTT0=
EXTT1=
EXTT2=
EXTT3=
EXTT4=
EXTT5=
EXTT6=
EXTT7=
EXTT8=
EXTT9=
EXTT10=
PLAYORDER=
